<svg xmlns="http://www.w3.org/2000/svg" width="18" height="21" viewBox="0 0 18 21"><g><g opacity=".5"><path fill="#8ba2af" d="M14.046 5.353a4.999 4.999 0 0 1-5.001 4.998 4.999 4.999 0 1 1 0-9.997 4.998 4.998 0 0 1 5 4.999zm-2 0c0-1.658-1.343-3-3.001-3a2.999 2.999 0 1 0 0 5.998c1.658 0 3-1.341 3-2.998zm6.001 13.995a1 1 0 0 1-2 0v-2c0-1.459-3.846-2.998-7.002-2.998-3.157 0-7.002 1.54-7.002 2.999v2a1 1 0 0 1-2.001 0v-2c0-3.064 4.832-4.999 9.003-4.999 4.17 0 9.002 1.935 9.002 4.999z"/><path fill="#93a9b5" d="M14.046 5.353a4.999 4.999 0 0 1-5.001 4.998 4.999 4.999 0 1 1 0-9.997 4.998 4.998 0 0 1 5 4.999zm-2 0c0-1.658-1.343-3-3.001-3a2.999 2.999 0 1 0 0 5.998c1.658 0 3-1.341 3-2.998zm6.001 13.995a1 1 0 0 1-2 0v-2c0-1.459-3.846-2.998-7.002-2.998-3.157 0-7.002 1.54-7.002 2.999v2a1 1 0 0 1-2.001 0v-2c0-3.064 4.832-4.999 9.003-4.999 4.17 0 9.002 1.935 9.002 4.999z"/></g></g></svg>